<svg xmlns="http://www.w3.org/2000/svg" width="256" height="93.659" viewBox="0 0 256 93.659"><defs><style>.a{fill:#dedede;}.b,.d{fill:#06bf95;}.c{fill:#333;}.d{stroke:#06bf95;}.e{fill:#434343;font-size:7px;font-family:SourceHanSansJP-Medium, Source Han Sans JP;font-weight:500;letter-spacing:0.3em;}</style></defs><g transform="translate(-3101 -10295)"><g transform="translate(3101 10295)"><path class="a" d="M942.1,469.146a23.351,23.351,0,0,1-1.128,7.115,33.724,33.724,0,1,0-35.18-53.6A34.037,34.037,0,0,0,901.786,429q-.618-.031-1.236-.032a24.387,24.387,0,0,0-24.4,24.4c0,.112,0,.22,0,.332a19.255,19.255,0,0,0-10.538,5.4,19.216,19.216,0,0,0-5.644,13.626c0,.6.029,1.2.083,1.8l.268,2.91,33.919-.025A27.842,27.842,0,0,1,892.889,471l-26.4.025a12.864,12.864,0,0,1,12.748-11.156c.094,0,.188,0,.3,0l3.829.087-.589-3.782a18.52,18.52,0,0,1-.217-2.8,17.992,17.992,0,0,1,20.73-17.776l2.516.383.943-2.364a27.224,27.224,0,0,1,4.038-6.937,27.537,27.537,0,0,1,5.839-5.445,27.31,27.31,0,1,1,25.477,47.91" transform="translate(-859.975 -410)"/><path class="b" d="M21.057,42.113a21.062,21.062,0,0,1-8.2-40.458,21.062,21.062,0,0,1,16.392,38.8A20.924,20.924,0,0,1,21.057,42.113Zm0-32.59a11.562,11.562,0,1,0,3.441.527A11.5,11.5,0,0,0,21.056,9.523Z" transform="translate(36.448 38.603)"/><rect class="b" width="10.729" height="27.073" rx="5.364" transform="matrix(0.755, -0.656, 0.656, 0.755, 60.523, 73.227)"/></g><g transform="translate(3222.826 10329.067)"><g transform="translate(2.005 0)"><path class="c" d="M1007.25,487.25V466.412h7.1a12.663,12.663,0,0,1,6.11,1.267c2.957,1.69,4.816,4.9,4.816,9.152,0,6.871-4.054,10.419-10.56,10.419Zm7.715-4.674c3.07,0,4.984-1.915,4.984-5.717,0-3.717-1.886-5.773-4.956-5.773h-2.422v11.489Z" transform="translate(-1007.25 -466.018)"/><path class="d" d="M1044.2,486.335a8.308,8.308,0,1,1,8.419-8.364A8.175,8.175,0,0,1,1044.2,486.335Zm3.745-8.307a3.75,3.75,0,1,0-3.745,3.943A3.846,3.846,0,0,0,1047.949,478.027Z" transform="translate(-1013.815 -467.151)"/><path class="c" d="M1076.542,487.25l-8-12.728.141,12.728h-5.1V466.412h4.59l8.11,13.178-.226-13.178h5.1V487.25Z" transform="translate(-1020.213 -466.018)"/><path class="c" d="M1095.586,487.25V466.412H1108.7v4.675h-8.017v3.238h7.819V479h-7.819v3.577h8.017v4.674Z" transform="translate(-1027.576 -466.018)"/><path class="c" d="M1135.772,487.25l-3.126-13.489h-.056l-3.126,13.489h-4.815l-5.379-20.838h5.406l2.788,13.545h.056l3.07-13.545h4.083l3.014,13.6h.056l2.844-13.6h5.379l-5.519,20.838Z" transform="translate(-1033.025 -466.018)"/><path class="c" d="M1169.065,472.377c-.226-1.493-.844-2.028-1.887-2.028a1.739,1.739,0,0,0-1.83,1.633c0,1.24,1.126,1.8,3.408,2.788,4.59,1.972,5.744,3.633,5.744,6.365,0,4.027-2.759,6.392-7.266,6.392-4.533,0-7.518-2.365-7.518-6.843v-.45h5.295c.028,1.718.873,2.844,2.2,2.844a1.989,1.989,0,0,0,2-2c0-1.661-2.309-2.394-4.2-3.154-3.408-1.38-4.957-3.182-4.957-5.885,0-3.549,3.435-6.139,7.266-6.139a7.93,7.93,0,0,1,3.689.873,5.7,5.7,0,0,1,3.323,5.6Z" transform="translate(-1042.332 -465.9)"/></g><text class="e" transform="translate(0 32.088)"><tspan x="0" y="0">ドウニュウ</tspan><tspan y="0">事例</tspan><tspan y="0">で</tspan><tspan y="0">探</tspan><tspan y="0">すメディア</tspan></text></g></g></svg>